<svg xmlns="http://www.w3.org/2000/svg" width="30" height="14" viewBox="0 0 30 14" fill="none">
  <path d="M13.5693 6.60059C13.5693 8.34107 12.8779 10.0103 11.6472 11.241C10.4165 12.4717 8.74732 13.1631 7.00684 13.1631C5.26635 13.1631 3.59715 12.4717 2.36645 11.241C1.13574 10.0103 0.444336 8.34107 0.444336 6.60059C0.444336 4.8601 1.13574 3.19091 2.36645 1.9602C3.59715 0.72949 5.26635 0.0380859 7.00684 0.0380859C8.74732 0.0380859 10.4165 0.72949 11.6472 1.9602C12.8779 3.19091 13.5693 4.8601 13.5693 6.60059ZM29.3193 6.60059C29.3193 8.34107 28.6279 10.0103 27.3972 11.241C26.1665 12.4717 24.4973 13.1631 22.7568 13.1631C21.0164 13.1631 19.3472 12.4717 18.1164 11.241C16.8857 10.0103 16.1943 8.34107 16.1943 6.60059C16.1943 4.8601 16.8857 3.19091 18.1164 1.9602C19.3472 0.72949 21.0164 0.0380859 22.7568 0.0380859C24.4973 0.0380859 26.1665 0.72949 27.3972 1.9602C28.6279 3.19091 29.3193 4.8601 29.3193 6.60059Z" fill="#424242"/>
</svg>