<svg id="visual" viewBox="0 0 900 200" width="900" height="200" xmlns="http://www.w3.org/2000/svg" xmlns:xlink="http://www.w3.org/1999/xlink" version="1.1"><rect x="0" y="0" width="900" height="200" fill="#ffffff"></rect><path d="M0 177L21.5 177.7C43 178.3 86 179.7 128.8 173.5C171.7 167.3 214.3 153.7 257.2 147.7C300 141.7 343 143.3 385.8 144.5C428.7 145.7 471.3 146.3 514.2 152.3C557 158.3 600 169.7 642.8 174.5C685.7 179.3 728.3 177.7 771.2 174.8C814 172 857 168 878.5 166L900 164L900 0L878.5 0C857 0 814 0 771.2 0C728.3 0 685.7 0 642.8 0C600 0 557 0 514.2 0C471.3 0 428.7 0 385.8 0C343 0 300 0 257.2 0C214.3 0 171.7 0 128.8 0C86 0 43 0 21.5 0L0 0Z" fill="#ffffff"></path><path d="M0 78L21.5 79.5C43 81 86 84 128.8 91.8C171.7 99.7 214.3 112.3 257.2 116.3C300 120.3 343 115.7 385.8 118.5C428.7 121.3 471.3 131.7 514.2 133.7C557 135.7 600 129.3 642.8 127.5C685.7 125.7 728.3 128.3 771.2 122.5C814 116.7 857 102.3 878.5 95.2L900 88L900 0L878.5 0C857 0 814 0 771.2 0C728.3 0 685.7 0 642.8 0C600 0 557 0 514.2 0C471.3 0 428.7 0 385.8 0C343 0 300 0 257.2 0C214.3 0 171.7 0 128.8 0C86 0 43 0 21.5 0L0 0Z" fill="#f9fbff"></path><path d="M0 61L21.5 66.7C43 72.3 86 83.7 128.8 91C171.7 98.3 214.3 101.7 257.2 99.5C300 97.3 343 89.7 385.8 84.8C428.7 80 471.3 78 514.2 72.8C557 67.7 600 59.3 642.8 56.3C685.7 53.3 728.3 55.7 771.2 63.3C814 71 857 84 878.5 90.5L900 97L900 0L878.5 0C857 0 814 0 771.2 0C728.3 0 685.7 0 642.8 0C600 0 557 0 514.2 0C471.3 0 428.7 0 385.8 0C343 0 300 0 257.2 0C214.3 0 171.7 0 128.8 0C86 0 43 0 21.5 0L0 0Z" fill="#f3f7ff"></path><path d="M0 45L21.5 39.5C43 34 86 23 128.8 23.3C171.7 23.7 214.3 35.3 257.2 41.2C300 47 343 47 385.8 41.5C428.7 36 471.3 25 514.2 19.5C557 14 600 14 642.8 18.5C685.7 23 728.3 32 771.2 35C814 38 857 35 878.5 33.5L900 32L900 0L878.5 0C857 0 814 0 771.2 0C728.3 0 685.7 0 642.8 0C600 0 557 0 514.2 0C471.3 0 428.7 0 385.8 0C343 0 300 0 257.2 0C214.3 0 171.7 0 128.8 0C86 0 43 0 21.5 0L0 0Z" fill="#ecf4ff"></path></svg>