<svg xmlns="http://www.w3.org/2000/svg" width="28" height="19" viewBox="0 0 28 19" fill="none">
  <path d="M11.3569 13.5381L18.1688 9.60058L11.3569 5.66309V13.5381ZM26.5294 3.26121C26.7001 3.87809 26.8182 4.70496 26.8969 5.75496C26.9888 6.80496 27.0282 7.71059 27.0282 8.49809L27.1069 9.60058C27.1069 12.475 26.8969 14.5881 26.5294 15.94C26.2013 17.1212 25.4401 17.8825 24.2588 18.2106C23.6419 18.3812 22.5132 18.4993 20.7807 18.5781C19.0744 18.67 17.5126 18.7093 16.0688 18.7093L13.9819 18.7881C8.48256 18.7881 5.05693 18.5781 3.70506 18.2106C2.52381 17.8825 1.76256 17.1212 1.43443 15.94C1.26381 15.3231 1.14568 14.4962 1.06693 13.4462C0.975059 12.3962 0.935684 11.4906 0.935684 10.7031L0.856934 9.60058C0.856934 6.72621 1.06693 4.61309 1.43443 3.26121C1.76256 2.07996 2.52381 1.31871 3.70506 0.990586C4.32193 0.819961 5.45068 0.701836 7.18318 0.623086C8.88943 0.531211 10.4513 0.491836 11.8951 0.491836L13.9819 0.413086C19.4813 0.413086 22.9069 0.623086 24.2588 0.990586C25.4401 1.31871 26.2013 2.07996 26.5294 3.26121Z" fill="#424242"/>
</svg>