<svg xmlns="http://www.w3.org/2000/svg" width="32" height="33" viewBox="0 0 32 33" fill="none">
  <path fill-rule="evenodd" clip-rule="evenodd" d="M21.4319 4.78809C23.1724 4.78809 24.8416 5.47949 26.0723 6.7102C27.303 7.9409 27.9944 9.6101 27.9944 11.3506V21.8506C27.9944 23.5911 27.303 25.2603 26.0723 26.491C24.8416 27.7217 23.1724 28.4131 21.4319 28.4131H10.9319C9.1914 28.4131 7.5222 27.7217 6.2915 26.491C5.06079 25.2603 4.36938 23.5911 4.36938 21.8506V11.3506C4.36938 9.6101 5.06079 7.9409 6.2915 6.7102C7.5222 5.47949 9.1914 4.78809 10.9319 4.78809H21.4319ZM21.4319 7.41309H10.9319C9.88759 7.41309 8.88608 7.82793 8.14765 8.56635C7.40923 9.30478 6.99438 10.3063 6.99438 11.3506V21.8506C6.99438 22.8949 7.40923 23.8964 8.14765 24.6348C8.88608 25.3732 9.88759 25.7881 10.9319 25.7881H21.4319C22.4762 25.7881 23.4777 25.3732 24.2161 24.6348C24.9545 23.8964 25.3694 22.8949 25.3694 21.8506V11.3506C25.3694 10.3063 24.9545 9.30478 24.2161 8.56635C23.4777 7.82793 22.4762 7.41309 21.4319 7.41309ZM16.1819 11.3506C17.5743 11.3506 18.9096 11.9037 19.8942 12.8883C20.8788 13.8728 21.4319 15.2082 21.4319 16.6006C21.4319 17.993 20.8788 19.3283 19.8942 20.3129C18.9096 21.2975 17.5743 21.8506 16.1819 21.8506C14.7895 21.8506 13.4541 21.2975 12.4696 20.3129C11.485 19.3283 10.9319 17.993 10.9319 16.6006C10.9319 15.2082 11.485 13.8728 12.4696 12.8883C13.4541 11.9037 14.7895 11.3506 16.1819 11.3506ZM16.1819 13.9756C15.4857 13.9756 14.818 14.2521 14.3257 14.7444C13.8334 15.2367 13.5569 15.9044 13.5569 16.6006C13.5569 17.2968 13.8334 17.9645 14.3257 18.4567C14.818 18.949 15.4857 19.2256 16.1819 19.2256C16.8781 19.2256 17.5458 18.949 18.038 18.4567C18.5303 17.9645 18.8069 17.2968 18.8069 16.6006C18.8069 15.9044 18.5303 15.2367 18.038 14.7444C17.5458 14.2521 16.8781 13.9756 16.1819 13.9756ZM22.0881 9.38184C22.4362 9.38184 22.7701 9.52012 23.0162 9.76626C23.2624 10.0124 23.4006 10.3462 23.4006 10.6943C23.4006 11.0424 23.2624 11.3763 23.0162 11.6224C22.7701 11.8686 22.4362 12.0068 22.0881 12.0068C21.74 12.0068 21.4062 11.8686 21.1601 11.6224C20.9139 11.3763 20.7756 11.0424 20.7756 10.6943C20.7756 10.3462 20.9139 10.0124 21.1601 9.76626C21.4062 9.52012 21.74 9.38184 22.0881 9.38184Z" fill="#424242"/>
</svg>