<svg xmlns="http://www.w3.org/2000/svg" width="27" height="27" viewBox="0 0 27 27" fill="none">
  <path d="M13.582 0.475586C6.33703 0.475586 0.457031 6.35559 0.457031 13.6006C0.457031 20.8456 6.33703 26.7256 13.582 26.7256C20.827 26.7256 26.707 20.8456 26.707 13.6006C26.707 6.35559 20.827 0.475586 13.582 0.475586ZM19.672 9.40059C19.4752 11.4743 18.622 16.5143 18.1889 18.8375C18.0052 19.8218 17.6377 20.15 17.2964 20.1893C16.5352 20.255 15.9577 19.6906 15.2227 19.205C14.0677 18.4437 13.4114 17.9712 12.2958 17.2362C10.9964 16.3831 11.8364 15.9106 12.5845 15.1493C12.7814 14.9525 16.1414 11.8943 16.207 11.6187C16.2161 11.577 16.2149 11.5336 16.2035 11.4925C16.1921 11.4513 16.1707 11.4135 16.1414 11.3825C16.0627 11.3168 15.9577 11.3431 15.8658 11.3562C15.7477 11.3825 13.9102 12.6031 10.327 15.0181C9.80203 15.3725 9.32953 15.5562 8.90953 15.5431C8.43703 15.53 7.54453 15.2806 6.87516 15.0575C6.04828 14.795 5.40516 14.6506 5.45766 14.1912C5.48391 13.955 5.81203 13.7187 6.42891 13.4693C10.2614 11.8025 12.8077 10.7 14.0808 10.175C17.7295 8.65246 18.4777 8.38996 18.9764 8.38996C19.0814 8.38996 19.3308 8.41621 19.4883 8.54746C19.6195 8.65246 19.6589 8.79684 19.672 8.90184C19.6589 8.98059 19.6852 9.21684 19.672 9.40059Z" fill="#424242"/>
</svg>