<svg width="452" height="103" viewBox="0 0 452 103" fill="none" xmlns="http://www.w3.org/2000/svg">
<g clip-path="url(#clip0_4_39)">
<rect x="-100" y="-209.5" width="600" height="600" fill="url(#paint0_linear_4_39)"/>
</g>
<g clip-path="url(#clip1_4_39)">
<rect x="-100" y="-287.5" width="600" height="600" fill="url(#paint1_linear_4_39)"/>
</g>
<path d="M82.3355 33H91.9355V37.8H84.2555L84.1355 38.04L90.5355 49.72C91.8421 52.0667 92.4955 53.8533 92.4955 55.08C92.4955 57.7733 91.6021 59.7467 89.8155 61H79.2155V56.36H87.4955L87.6155 56.12L80.4155 43.2C79.3755 41.3333 78.8555 39.8133 78.8555 38.64C78.8555 35.8667 80.0155 33.9867 82.3355 33ZM95.2833 61V33H100.763V61H95.2833ZM109.139 37.8H103.099V33H120.619V37.8H114.579V61H109.139V37.8ZM129.293 56.36H136.333V61H126.173C124.413 59.3467 123.08 57.2533 122.173 54.72C121.267 52.1867 120.813 49.5867 120.813 46.92C120.813 44.2267 121.32 41.64 122.333 39.16C123.347 36.68 124.853 34.6267 126.853 33H136.333V37.8H129.293C128.573 38.6267 127.947 39.96 127.413 41.8C126.907 43.64 126.653 45.4 126.653 47.08C126.653 48.76 126.907 50.52 127.413 52.36C127.947 54.2 128.573 55.5333 129.293 56.36ZM151.292 33C153.159 34.52 154.545 36.56 155.452 39.12C156.359 41.68 156.812 44.32 156.812 47.04C156.812 49.7333 156.372 52.2933 155.492 54.72C154.612 57.1467 153.212 59.24 151.292 61H143.052C141.132 59.24 139.732 57.1467 138.852 54.72C137.972 52.2933 137.532 49.7333 137.532 47.04C137.532 44.32 137.985 41.68 138.892 39.12C139.799 36.56 141.185 34.52 143.052 33H151.292ZM145.732 56.36H148.612C149.279 55.5867 149.839 54.3333 150.292 52.6C150.772 50.84 151.012 48.9867 151.012 47.04C151.012 45.0933 150.785 43.2667 150.332 41.56C149.879 39.8267 149.319 38.5733 148.652 37.8H145.732C145.065 38.5733 144.492 39.8267 144.012 41.56C143.559 43.2667 143.332 45.0933 143.332 47.04C143.332 48.9867 143.559 50.84 144.012 52.6C144.492 54.3333 145.065 55.5867 145.732 56.36ZM172.412 61L164.932 45.52L164.732 45.6L164.972 50.32V61H159.932V33H163.972L171.332 49.08L171.532 49L171.092 44.08V33H176.132V61H172.412Z" fill="#77B65A"/>
<path d="M191.857 61H186.377V33H191.857V44.28H198.257V33H203.737V61H198.257V49.4H191.857V61ZM219.548 61H210.828C208.161 58.52 206.828 55.1333 206.828 50.84C206.828 48.68 207.121 46.8 207.708 45.2C208.321 43.6 209.281 42.0533 210.588 40.56H219.948C221.335 42.16 222.281 43.72 222.788 45.24C223.295 46.7333 223.548 48.6 223.548 50.84C223.548 55.1333 222.215 58.52 219.548 61ZM213.668 56.8H216.708C217.668 54.9333 218.148 52.8133 218.148 50.44C218.148 48.0667 217.655 46.1733 216.668 44.76H213.668C212.708 46.12 212.228 48.0533 212.228 50.56C212.228 53.04 212.708 55.12 213.668 56.8ZM233.491 61H229.291C228.118 59.5067 227.318 58.0133 226.891 56.52C226.465 55.0267 226.251 53.16 226.251 50.92V40.56H231.571V51.32C231.571 53.7467 232.051 55.5733 233.011 56.8H236.731V40.56H242.051V61H237.851L237.131 59.56C236.118 60.52 234.905 61 233.491 61ZM245.514 61V40.56H249.314L250.314 42.72C251.381 41.28 252.727 40.56 254.354 40.56H255.914V45.92H250.834V61H245.514ZM276.775 61H268.055C265.388 58.52 264.055 55.1333 264.055 50.84C264.055 48.68 264.348 46.8 264.935 45.2C265.548 43.6 266.508 42.0533 267.815 40.56H277.175C278.561 42.16 279.508 43.72 280.015 45.24C280.521 46.7333 280.775 48.6 280.775 50.84C280.775 55.1333 279.441 58.52 276.775 61ZM270.895 56.8H273.935C274.895 54.9333 275.375 52.8133 275.375 50.44C275.375 48.0667 274.881 46.1733 273.895 44.76H270.895C269.935 46.12 269.455 48.0533 269.455 50.56C269.455 53.04 269.935 55.12 270.895 56.8ZM288.998 33H294.758V37.2H291.158C290.251 37.76 289.798 38.88 289.798 40.56H293.958V44.76H289.798V61H284.478V44.76H282.278V40.56H284.478C284.478 37.0933 285.985 34.5733 288.998 33ZM310.387 56.36H317.427V61H307.267C305.507 59.3467 304.174 57.2533 303.267 54.72C302.36 52.1867 301.907 49.5867 301.907 46.92C301.907 44.2267 302.414 41.64 303.427 39.16C304.44 36.68 305.947 34.6267 307.947 33H317.427V37.8H310.387C309.667 38.6267 309.04 39.96 308.507 41.8C308 43.64 307.747 45.4 307.747 47.08C307.747 48.76 308 50.52 308.507 52.36C309.04 54.2 309.667 55.5333 310.387 56.36ZM331.931 61H323.211C320.544 58.52 319.211 55.1333 319.211 50.84C319.211 48.68 319.504 46.8 320.091 45.2C320.704 43.6 321.664 42.0533 322.971 40.56H332.331C333.717 42.16 334.664 43.72 335.171 45.24C335.677 46.7333 335.931 48.6 335.931 50.84C335.931 55.1333 334.597 58.52 331.931 61ZM326.051 56.8H329.091C330.051 54.9333 330.531 52.8133 330.531 50.44C330.531 48.0667 330.037 46.1733 329.051 44.76H326.051C325.091 46.12 324.611 48.0533 324.611 50.56C324.611 53.04 325.091 55.12 326.051 56.8ZM354.274 61H350.234L349.514 59.56C348.928 60.0933 348.368 60.4667 347.834 60.68C347.328 60.8933 346.554 61 345.514 61H342.034C340.861 59.88 339.928 58.4133 339.234 56.6C338.568 54.7867 338.234 52.76 338.234 50.52C338.234 48.2533 338.568 46.3333 339.234 44.76C339.928 43.1867 340.901 41.7867 342.154 40.56H345.594C347.008 40.56 348.128 40.9333 348.954 41.68V33H354.274V61ZM348.954 44.76H345.114C344.128 46.44 343.634 48.5067 343.634 50.96C343.634 53.3867 344.114 55.3333 345.074 56.8H348.954V44.76ZM366.94 44.76H363.94C363.54 45.24 363.207 45.9067 362.94 46.76C362.7 47.6133 362.58 48.44 362.58 49.24H368.3C368.354 48.44 368.247 47.6133 367.98 46.76C367.714 45.88 367.367 45.2133 366.94 44.76ZM372.38 56.8V61H362.22C360.354 59.7467 359.034 58.2 358.26 56.36C357.514 54.4933 357.14 52.6133 357.14 50.72C357.14 46.3467 358.794 42.96 362.1 40.56H368.58C370.367 41.8667 371.58 43.2533 372.22 44.72C372.86 46.1867 373.18 47.6667 373.18 49.16C373.18 50.6533 373.06 51.9333 372.82 53H362.86C362.94 53.6133 363.167 54.32 363.54 55.12C363.94 55.8933 364.367 56.4533 364.82 56.8H372.38Z" fill="black"/>
<defs>
<linearGradient id="paint0_linear_4_39" x1="-100" y1="390.5" x2="500" y2="-209.5" gradientUnits="userSpaceOnUse">
<stop/>
<stop stop-color="#77B65A"/>
<stop offset="0.0471405" stop-color="#77B65A"/>
<stop offset="0.0471405"/>
<stop offset="0.0942809"/>
<stop offset="0.0942809" stop-color="#77B65A"/>
<stop offset="0.141421" stop-color="#77B65A"/>
<stop offset="0.141421"/>
<stop offset="0.188562"/>
<stop offset="0.188562" stop-color="#77B65A"/>
<stop offset="0.235702" stop-color="#77B65A"/>
<stop offset="0.235702"/>
<stop offset="0.282843"/>
<stop offset="0.282843" stop-color="#77B65A"/>
<stop offset="0.329983" stop-color="#77B65A"/>
<stop offset="0.329983"/>
<stop offset="0.377124"/>
<stop offset="0.377124" stop-color="#77B65A"/>
<stop offset="0.424264" stop-color="#77B65A"/>
<stop offset="0.424264"/>
<stop offset="0.471405"/>
<stop offset="0.471405" stop-color="#77B65A"/>
<stop offset="0.518545" stop-color="#77B65A"/>
<stop offset="0.518545"/>
<stop offset="0.565685"/>
<stop offset="0.565685" stop-color="#77B65A"/>
<stop offset="0.612826" stop-color="#77B65A"/>
<stop offset="0.612826"/>
<stop offset="0.659966"/>
<stop offset="0.659966" stop-color="#77B65A"/>
<stop offset="0.707107" stop-color="#77B65A"/>
<stop offset="0.707107"/>
<stop offset="0.754247"/>
<stop offset="0.754247" stop-color="#77B65A"/>
<stop offset="0.801388" stop-color="#77B65A"/>
<stop offset="0.801388"/>
<stop offset="0.848528"/>
<stop offset="0.848528" stop-color="#77B65A"/>
<stop offset="0.895669" stop-color="#77B65A"/>
<stop offset="0.895669"/>
<stop offset="0.942809"/>
<stop offset="0.942809" stop-color="#77B65A"/>
<stop offset="0.989949" stop-color="#77B65A"/>
<stop offset="0.989949"/>
</linearGradient>
<linearGradient id="paint1_linear_4_39" x1="-100" y1="312.5" x2="500" y2="-287.5" gradientUnits="userSpaceOnUse">
<stop/>
<stop stop-color="#77B65A"/>
<stop offset="0.0471405" stop-color="#77B65A"/>
<stop offset="0.0471405"/>
<stop offset="0.0942809"/>
<stop offset="0.0942809" stop-color="#77B65A"/>
<stop offset="0.141421" stop-color="#77B65A"/>
<stop offset="0.141421"/>
<stop offset="0.188562"/>
<stop offset="0.188562" stop-color="#77B65A"/>
<stop offset="0.235702" stop-color="#77B65A"/>
<stop offset="0.235702"/>
<stop offset="0.282843"/>
<stop offset="0.282843" stop-color="#77B65A"/>
<stop offset="0.329983" stop-color="#77B65A"/>
<stop offset="0.329983"/>
<stop offset="0.377124"/>
<stop offset="0.377124" stop-color="#77B65A"/>
<stop offset="0.424264" stop-color="#77B65A"/>
<stop offset="0.424264"/>
<stop offset="0.471405"/>
<stop offset="0.471405" stop-color="#77B65A"/>
<stop offset="0.518545" stop-color="#77B65A"/>
<stop offset="0.518545"/>
<stop offset="0.565685"/>
<stop offset="0.565685" stop-color="#77B65A"/>
<stop offset="0.612826" stop-color="#77B65A"/>
<stop offset="0.612826"/>
<stop offset="0.659966"/>
<stop offset="0.659966" stop-color="#77B65A"/>
<stop offset="0.707107" stop-color="#77B65A"/>
<stop offset="0.707107"/>
<stop offset="0.754247"/>
<stop offset="0.754247" stop-color="#77B65A"/>
<stop offset="0.801388" stop-color="#77B65A"/>
<stop offset="0.801388"/>
<stop offset="0.848528"/>
<stop offset="0.848528" stop-color="#77B65A"/>
<stop offset="0.895669" stop-color="#77B65A"/>
<stop offset="0.895669"/>
<stop offset="0.942809"/>
<stop offset="0.942809" stop-color="#77B65A"/>
<stop offset="0.989949" stop-color="#77B65A"/>
<stop offset="0.989949"/>
</linearGradient>
<clipPath id="clip0_4_39">
<rect width="452" height="25" fill="white" transform="translate(0 78)"/>
</clipPath>
<clipPath id="clip1_4_39">
<rect width="452" height="25" fill="white"/>
</clipPath>
</defs>
</svg>
