<svg id="visual" viewBox="0 372 960 168" width="960" height="540" xmlns="http://www.w3.org/2000/svg" xmlns:xlink="http://www.w3.org/1999/xlink" version="1.1">
  <path d="M0 411L12.3 416.2C24.7 421.3 49.3 431.7 74 424.7C98.7 417.7 123.3 393.3 148 392.2C172.7 391 197.3 413 221.8 419.8C246.3 426.7 270.7 418.3 295.2 413.8C319.7 409.3 344.3 408.7 369 405.3C393.7 402 418.3 396 443 394.2C467.7 392.3 492.3 394.7 517 402.2C541.7 409.7 566.3 422.3 591 425C615.7 427.7 640.3 420.3 664.8 416.2C689.3 412 713.7 411 738.2 407.5C762.7 404 787.3 398 812 402.8C836.7 407.7 861.3 423.3 886 422.3C910.7 421.3 935.3 403.7 947.7 394.8L960 386L960 541L947.7 541C935.3 541 910.7 541 886 541C861.3 541 836.7 541 812 541C787.3 541 762.7 541 738.2 541C713.7 541 689.3 541 664.8 541C640.3 541 615.7 541 591 541C566.3 541 541.7 541 517 541C492.3 541 467.7 541 443 541C418.3 541 393.7 541 369 541C344.3 541 319.7 541 295.2 541C270.7 541 246.3 541 221.8 541C197.3 541 172.7 541 148 541C123.3 541 98.7 541 74 541C49.3 541 24.7 541 12.3 541L0 541Z" fill="#F5F5F5" stroke-linecap="round" stroke-linejoin="miter">
  </path>
</svg>